<?xml version="1.0" standalone="no"?>
<!DOCTYPE svg PUBLIC "-//W3C//DTD SVG 20010904//EN"
 "http://www.w3.org/TR/2001/REC-SVG-20010904/DTD/svg10.dtd">
<svg version="1.0" xmlns="http://www.w3.org/2000/svg"
 width="260.000000pt" height="260.000000pt" viewBox="0 0 260.000000 260.000000"
 preserveAspectRatio="xMidYMid meet">
<metadata>
Created by potrace 1.11, written by Peter Selinger 2001-2013
</metadata>
<g transform="translate(0.000000,260.000000) scale(0.100000,-0.100000)"
fill="#000000" stroke="none">
<path d="M917 2139 c-55 -13 -83 -35 -108 -85 -58 -121 24 -244 162 -244 109
0 183 67 182 164 -1 126 -100 195 -236 165z"/>
<path d="M1950 1676 c-75 -16 -137 -49 -193 -102 l-47 -44 -1 45 c-1 25 -3 50
-4 55 -1 6 -3 16 -4 23 -1 10 -33 13 -143 12 -79 0 -148 -3 -153 -7 -7 -4 -10
-213 -10 -605 l0 -598 163 -3 c149 -2 162 -1 163 15 0 10 1 204 1 432 l1 414
31 35 c81 92 258 102 327 18 34 -40 39 -109 39 -516 l0 -400 163 0 162 0 -1
438 c-1 240 -4 456 -7 479 -22 149 -118 272 -237 304 -64 16 -186 19 -250 5z"/>
<path d="M809 1560 c0 -142 0 -1059 0 -1088 l1 -22 163 2 162 3 0 605 0 604
-162 1 -163 1 -1 -106z"/>
<path d="M229 757 c-61 -32 -89 -84 -85 -157 5 -107 70 -161 191 -162 131 -2
215 136 153 251 -46 87 -165 117 -259 68z"/>
</g>
</svg>
